# xmcd CD database file
#
# Track frame offsets:
#	150
#	18423
#	49530
#	85663
#	101135
#	116840
#	130990
#	148073
#	168420
#
# Disc length: 2604 seconds
#
# Revision: 2
# Processed by: cddbd v1.4PL0 Copyright (c) Steve Scherf et al.
# Submitted via: CDex 1.50beta8
#
DISCID=770a2a09
DTITLE=Erin Burkett - Erin Burkett
DYEAR=1900
DGENRE=Blues
TTITLE0=All sold out
TTITLE1=Angels never would
TTITLE2=Blues for Erin
TTITLE3=I'm not goin' back
TTITLE4=Goin' to mississippi
TTITLE5=Blind mice blues
TTITLE6=Monkey tree
TTITLE7=hree hours past late
TTITLE8=Goodbye song
EXTD=
EXTT0=
EXTT1=
EXTT2=
EXTT3=
EXTT4=
EXTT5=
EXTT6=
EXTT7=
EXTT8=
PLAYORDER=
